<svg xmlns="http://www.w3.org/2000/svg" xmlns:xlink="http://www.w3.org/1999/xlink"
 aria-hidden="true"
  role="img" 
  class="iconify iconify--logos"
   width="31.88"
    height="32" 
    preserveAspectRatio="xMidYMid meet"
     viewBox="0 0 256 257">
     <defs>
     <linearGradient id="IconifyId1813088fe1fbc01fb466" x1="-.828%" x2="57.636%" y1="7.652%" y2="78.411%">
     <stop offset="0%" stop-color="#41D1FF"></stop><stop offset="100%" stop-color="#BD34FE">
     </stop>
     </linearGradient><linearGradient id="IconifyId1813088fe1fbc01fb467" x1="43.376%" x2="50.316%" y1="2.242%" y2="89.03%">
     <stop offset="0%" stop-color="#FFEA83"></stop><stop offset="8.333%" stop-color="#FFDD35">
     </stop><stop offset="100%" stop-color="#FFA800"></stop>
     </linearGradient></defs><path fill="url(#IconifyId1813088fe1fbc01fb466)" d="M255.153 37.938L134.897 252.976c-2.483 4.44-8.862 4.466-11.382.048L.875 37.958c-2.746-4.814 1.371-10.646 6.827-9.67l120.385 21.517a6.537 6.537 0 0 0 2.322-.004l117.867-21.483c5.438-.991 9.574 4.796 6.877 9.62Z"></path><path fill="url(#IconifyId1813088fe1fbc01fb467)" d="M185.432.063L96.44 17.501a3.268 3.268 0 0 0-2.634 3.014l-5.474 92.456a3.268 3.268 0 0 0 3.997 3.378l24.777-5.718c2.318-.535 4.413 1.507 3.936 3.838l-7.361 36.047c-.495 2.426 1.782 4.5 4.151 3.78l15.304-4.649c2.372-.72 4.652 1.36 4.15 3.788l-11.698 56.621c-.732 3.542 3.979 5.473 5.943 2.437l1.313-2.028l72.516-144.72c1.215-2.423-.88-5.186-3.54-4.672l-25.505 4.922c-2.396.462-4.435-1.77-3.759-4.114l16.646-57.705c.677-2.35-1.37-4.583-3.769-4.113Z">
     </path>
     </svg>







     <svg id="Icons" xmlns="http://www.w3.org/2000/svg" viewBox="0 0 512 512"><defs><style>.cls-5{fill:#7a2b13}.cls-7{fill:#cc715e}.cls-8{fill:#fff}.cls-9{fill:#4fcae8}.cls-10{fill:#83d5ef}.cls-11{fill:#cde6f6}.cls-13{fill:#f9c744}.cls-15{fill:#992b16}.cls-16{fill:#fbd9a3}</style></defs><circle cx="256" cy="256" r="255.98" style="fill:#fbdb58"/><path d="M512 255.76A255.63 255.63 0 0 0 408.56 50.44C295-33.81 134.69-10.08 50.44 103.44a254.76 254.76 0 0 0-49.93 136 76.89 76.89 0 0 1 14.24 6.88c23.84 14.74 42 41.9 69.91 44.44 19.15 1.75 37.29-9.24 51.1-22.62s24.87-29.51 39.4-42.12a112.53 112.53 0 0 1 157.7 10c14.17 15.89 26.53 37.44 47.68 40 28.75 3.44 51.22-31.63 80-28.95 9.3.87 17.72 5.66 26.73 8a54.5 54.5 0 0 0 24.73.69z" style="fill:#efb732"/><path d="m354.76 226.75-14.35-2.39a75.42 75.42 0 0 1-42.36-22.53 80.24 80.24 0 0 0-33.56-21.22v-4h-25A80.34 80.34 0 0 0 181 201.83a75.42 75.42 0 0 1-42.36 22.53l-14.35 2.39a24.76 24.76 0 0 0-20.69 24.42v155a24.89 24.89 0 0 0 24.89 24.89h222.07a24.89 24.89 0 0 0 24.89-24.89v-155a24.76 24.76 0 0 0-20.69-24.42z" style="fill:#8c4735"/><path d="m379.73 226.75-14.35-2.39A75.42 75.42 0 0 1 323 201.83a80.62 80.62 0 0 0-117.07 0 75.42 75.42 0 0 1-42.36 22.53l-14.35 2.39a24.76 24.76 0 0 0-20.69 24.42v155a24.89 24.89 0 0 0 24.89 24.89h222.11a24.89 24.89 0 0 0 24.89-24.89v-155a24.76 24.76 0 0 0-20.69-24.42z" style="fill:#a05740"/><path class="cls-5" d="M350.88 402.07H178.09a22.29 22.29 0 0 1-22.26-22.26V267.33a22.09 22.09 0 0 1 18.52-21.86l.4-.05 19.15-1.64a47.63 47.63 0 0 0 26.38-14.1 60.89 60.89 0 0 1 88.42 0 47.57 47.57 0 0 0 26.37 14.1l19.55 1.69a22.09 22.09 0 0 1 18.52 21.86v112.48a22.28 22.28 0 0 1-22.26 22.26z"/><path d="M175.82 255.36a12.13 12.13 0 0 0-10 12v112.45a12.27 12.27 0 0 0 12.26 12.26h172.8a12.27 12.27 0 0 0 12.26-12.26V267.33a12.13 12.13 0 0 0-10-12l-19.53-1.68a57.63 57.63 0 0 1-32.18-17.12 50.9 50.9 0 0 0-73.91 0 57.64 57.64 0 0 1-32.17 17.12h-.4z" style="fill:#b76049"/><ellipse class="cls-7" cx="341.98" cy="286.81" rx="12.69" ry="22.6"/><ellipse class="cls-7" cx="341.98" cy="330.98" rx="8.01" ry="14.26"/><path class="cls-8" d="M204.65 372.8a3.81 3.81 0 0 1-1-2.82v-34.63a3.54 3.54 0 0 1 1-2.66 3.68 3.68 0 0 1 2.7-.95h14.56q6.69 0 10.42 3.34c5 4.06 5 14.73 0 18.8q-3.74 3.38-10.42 3.37h-10.6V370a3.81 3.81 0 0 1-1 2.82 4.28 4.28 0 0 1-5.66-.02zm16.25-21.41q7.88 0 7.88-6.86t-7.88-6.87h-9.65v13.73zM249.89 369.57q-4.44-4.44-4.44-13v-21.34a3.79 3.79 0 0 1 1-2.75 4.1 4.1 0 0 1 5.45 0 3.78 3.78 0 0 1 1 2.75V357q0 5.39 2.55 8.14t7.46 2.75c6.78 0 10-4.14 9.94-10.89v-21.77a3.73 3.73 0 1 1 7.46 0v21.37q0 8.47-4.44 12.94c-5.26 5.97-20.71 5.94-25.98.03zM323.37 355.6a10.59 10.59 0 0 1 2 6.51c-.05 8-6.49 11.4-14.33 11.37h-15.29a3.71 3.71 0 0 1-2.69-1 3.55 3.55 0 0 1-1-2.67v-34.46a3.54 3.54 0 0 1 1-2.66 3.67 3.67 0 0 1 2.69-.95h14.69q6.51 0 10.21 2.87c4.05 2.84 4.91 9.76 2 13.76a10 10 0 0 1-4.82 3.56 10.08 10.08 0 0 1 5.54 3.67zm-23.83-6.28h9.65q7.88 0 7.88-5.86a5 5 0 0 0-2-4.38q-2-1.43-5.92-1.42h-9.65zm16.7 16.76c2.55-1.76 2.51-7.53 0-9.3-1.28-1-3.29-1.54-6-1.54h-10.7v12.32h10.66c2.8 0 4.8-.5 6.04-1.48z"/><path class="cls-9" d="M313.89 265.16v26.27a5.13 5.13 0 0 1-5.13 5.13h-16v-6.78h12.19a2.19 2.19 0 0 0 2.19-2.2V269a2.2 2.2 0 0 0-2.19-2.2h-12.23V260h16a5.13 5.13 0 0 1 5.17 5.16z"/><path class="cls-10" d="M313.89 265.16v23.43a5.13 5.13 0 0 1-5.13 5.13h-10a1.55 1.55 0 0 1-1.55-1.55v-.85a1.55 1.55 0 0 1 1.55-1.54h8.38a2.2 2.2 0 0 0 2.19-2.2v-21.41a2.2 2.2 0 0 0-2.19-2.2h-8.38a1.55 1.55 0 0 1-1.55-1.54v-.85a1.55 1.55 0 0 1 1.55-1.55h10a5.13 5.13 0 0 1 5.13 5.13z"/><ellipse class="cls-11" cx="311.94" cy="269.92" rx="1.94" ry="4.27"/><ellipse class="cls-11" cx="311.94" cy="278.48" rx="1.35" ry="2.96"/><path class="cls-9" d="M239.93 245.08H288a4.69 4.69 0 0 1 4.69 4.69v62.76a4.7 4.7 0 0 1-4.7 4.7h-48.1a4.69 4.69 0 0 1-4.69-4.69v-62.76a4.7 4.7 0 0 1 4.73-4.7z"/><path class="cls-10" d="M245.11 245.08H288a4.69 4.69 0 0 1 4.69 4.69v62.76a4.69 4.69 0 0 1-4.69 4.69h-42.89a4.69 4.69 0 0 1-4.69-4.69v-62.75a4.7 4.7 0 0 1 4.69-4.7z"/><rect class="cls-11" x="287.54" y="250.93" width="5.18" height="21.09" rx="2.59"/><rect class="cls-11" x="287.54" y="276.44" width="5.18" height="13.21" rx="2.59"/><path d="M240.42 245.08h47.12v59.55a5.64 5.64 0 0 1-5.64 5.64h-35.85a5.64 5.64 0 0 1-5.64-5.64v-59.55h.01z" style="fill:#f39e22"/><ellipse class="cls-13" cx="279.09" cy="263.66" rx="5.54" ry="9.78"/><ellipse class="cls-13" cx="279.09" cy="282.54" rx="3.46" ry="6.1"/><path class="cls-8" d="M287.54 245.08h-47.12a6.46 6.46 0 0 1 8.73-6.07 6.48 6.48 0 0 1 12.91-.14 10.06 10.06 0 0 1 11.23-.74 5 5 0 0 1 10 .47 4.89 4.89 0 0 1-.22 1.49 5 5 0 0 1 4.47 4.99z"/><circle class="cls-8" cx="262.39" cy="265.67" r="3.32"/><circle class="cls-8" cx="268.6" cy="277.21" r="4.29"/><circle class="cls-8" cx="277.19" cy="246.64" r="4.29"/><circle class="cls-8" cx="260.78" cy="285.84" r="2.79"/><circle class="cls-8" cx="252.49" cy="300.72" r="2.79"/><circle class="cls-8" cx="270.73" cy="296.56" r="3.6"/><circle class="cls-8" cx="270.1" cy="256.67" r="2.79"/><path class="cls-8" d="M249.14 290.47a3.35 3.35 0 0 1-3.35-3.35v-42h6.7v42a3.35 3.35 0 0 1-3.35 3.35zM255.69 245.08h6.7v10.07a3.35 3.35 0 0 1-3.39 3.35 3.35 3.35 0 0 1-3.35-3.35v-10.07z"/><path d="M400.42 87v22.71A16.46 16.46 0 0 1 384 126.14H103.58V70.52H384A16.46 16.46 0 0 1 400.42 87z" style="fill:#6b250c"/><path class="cls-5" d="M400.42 87v8.7A16.46 16.46 0 0 1 384 112.16H103.58V70.52H384A16.46 16.46 0 0 1 400.42 87z"/><ellipse class="cls-15" cx="264.9" cy="85.21" rx="25.86" ry="9.65"/><ellipse class="cls-15" cx="315.95" cy="85.21" rx="18.46" ry="6.89"/><circle class="cls-5" cx="198" cy="227.48" r="9.93"/><circle class="cls-5" cx="330.97" cy="227.48" r="9.93"/><path class="cls-16" d="M175.76 126.14h10v71c-1.64 1.47-3.24 3-4.78 4.65s-3.41 3.42-5.22 5z"/><path class="cls-8" d="M220.24 82.76v127.48A22.27 22.27 0 0 1 198 232.48a5 5 0 0 1 0-10 12.25 12.25 0 0 0 12.24-12.24V82.76A12.25 12.25 0 0 0 198 70.52h-18.55a22.24 22.24 0 0 1 40.79 12.24z"/><path class="cls-16" d="M318.73 126.14v71.49a79.05 79.05 0 0 0-10-7.78v-63.71z"/><path class="cls-8" d="M353.21 82.76v127.48A22.27 22.27 0 0 1 331 232.48a5 5 0 0 1 0-10 12.25 12.25 0 0 0 12.24-12.24V82.76A12.25 12.25 0 0 0 331 70.52h-18.58a22.24 22.24 0 0 1 40.79 12.24z"/></svg>